<svg xmlns="http://www.w3.org/2000/svg" viewBox="0 0 48 22.79"><defs><style>.cls-1{fill:none;stroke:#231f20;stroke-linecap:round;stroke-linejoin:round;stroke-width:4px;}</style></defs><title>aquarius</title><g id="Layer_2" data-name="Layer 2"><g id="Layer_1-2" data-name="Layer 1"><path class="cls-1" d="M46,6.79,42.94,3.35a4,4,0,0,0-5.15-.71l-5,3.22a2,2,0,0,1-2.58-.35L28.28,3.34a4,4,0,0,0-5.15-.71l-5,3.22a2,2,0,0,1-2.58-.35L13.61,3.34a4,4,0,0,0-5.15-.71L2,6.79"/><path class="cls-1" d="M46,20.79l-3.06-3.44a4,4,0,0,0-5.15-.71l-5,3.22a2,2,0,0,1-2.58-.35l-1.92-2.16a4,4,0,0,0-5.15-.71l-5,3.22a2,2,0,0,1-2.58-.35l-1.93-2.17a4,4,0,0,0-5.15-.71L2,20.79"/></g></g></svg>