<svg xmlns="http://www.w3.org/2000/svg" viewBox="0 0 48 40"><defs><style>.cls-1{fill:none;stroke:#231f20;stroke-linecap:round;stroke-miterlimit:10;stroke-width:4px;}</style></defs><title>scorpio</title><g id="Layer_2" data-name="Layer 2"><g id="Layer_1-2" data-name="Layer 1"><path class="cls-1" d="M2,7.5A5.52,5.52,0,0,1,7.5,2h0A5.52,5.52,0,0,1,13,7.5"/><path class="cls-1" d="M24,28.5V7.5A5.52,5.52,0,0,0,18.5,2h0A5.52,5.52,0,0,0,13,7.5v21"/><path class="cls-1" d="M46,34H40.5A5.52,5.52,0,0,1,35,28.5V7.5A5.52,5.52,0,0,0,29.5,2h0A5.52,5.52,0,0,0,24,7.5v21"/><line class="cls-1" x1="46" y1="34" x2="42" y2="30"/><line class="cls-1" x1="46" y1="34" x2="42" y2="38"/></g></g></svg>