<svg xmlns="http://www.w3.org/2000/svg" viewBox="0 0 47.3 37"><defs><style>.cls-1{fill:none;stroke:#231f20;stroke-linecap:round;stroke-miterlimit:10;stroke-width:4px;}</style></defs><title>virgo</title><g id="Layer_2" data-name="Layer 2"><g id="Layer_1-2" data-name="Layer 1"><path class="cls-1" d="M2,7.5A5.52,5.52,0,0,1,7.5,2h0A5.52,5.52,0,0,1,13,7.5"/><path class="cls-1" d="M24,28.5V7.5A5.52,5.52,0,0,0,18.5,2h0A5.52,5.52,0,0,0,13,7.5v21"/><path class="cls-1" d="M44.57,32.18A5.49,5.49,0,0,1,40.5,34h0A5.52,5.52,0,0,1,35,28.5V7.5A5.52,5.52,0,0,0,29.5,2h0A5.52,5.52,0,0,0,24,7.5v21"/><path class="cls-1" d="M35,16c0-2.44,1-7,5.5-7,4,0,5.5,4.41,4.5,9-2.12,9.75-15,17-23,17"/></g></g></svg>